<svg
  width="133"
  height="281"
  viewBox="0 0 133 281"
  fill="none"
  xmlns="http://www.w3.org/2000/svg"
>
  <g id="bulb">
    <ellipse id="lightcircle" cx="66.5" cy="213.5" rx="66.5" ry="67.5" fill="#FCF4DE" />
    <line id="Line 1" x1="73" y1="-5" x2="73" y2="174" stroke="black" stroke-width="2" />
    <g id="mainbulb">
      <path
        id="innerbulb"
        d="M57.2784 213.158C57.2784 221.633 64.1484 228.503 72.6226 228.503C81.0969 228.503 87.9675 221.634 87.9675 213.158C87.9675 207.647 84.2964 203.047 83.4158 201.47C82.5335 199.891 81.8566 197.412 81.7345 195.896C81.3342 190.939 77.6551 186.783 72.6232 186.783C67.5919 186.783 64.2311 190.859 63.5119 195.896C63.2969 197.403 62.872 199.892 61.8306 201.47C60.8166 203.007 57.2784 207.647 57.2784 213.158Z"
        fill="#FFD56A"
      />
      <g id="regular">
        <path
          id="Vector"
          d="M66.5231 183.78C66.5231 183.78 65.8599 177.451 71.6902 177.345C77.5205 177.238 80.2768 180.09 79.7065 181.23C79.1362 182.371 79.0147 182.825 79.0147 182.825C79.0147 182.825 81.5993 184.232 80.1776 185.963C78.7558 187.694 77.9003 188.454 77.9003 188.454C77.9003 188.454 75.4251 185.779 72.6232 186.783C69.8212 187.789 66.664 189.495 66.664 189.495C66.664 189.495 63.5107 185.948 66.5231 183.78Z"
          fill="white"
        />
        <path
          id="Vector_2"
          d="M67.3849 177.356C67.0393 175.661 69.0679 173.817 71.916 173.235C74.7647 172.653 77.3528 173.554 77.6996 175.248C78.0463 176.942 76.2053 176.855 73.3578 177.437C70.5096 178.019 67.7311 179.05 67.3849 177.356Z"
          fill="black"
        />
        <path
          id="Vector_3"
          d="M65.1454 188.523C64.6303 185.732 67.5126 183.331 71.8834 182.521C76.1474 181.731 79.9699 182.656 80.4844 185.444"
          stroke="black"
          stroke-width="2"
          stroke-miterlimit="10"
          stroke-linecap="round"
          stroke-linejoin="round"
        />
        <path
          id="Vector_4"
          d="M85.6144 208.644C85.6144 218.466 77.6516 226.428 67.8303 226.428C64.1666 226.428 60.7618 225.319 57.9331 223.42C61.1251 228.177 66.5511 231.307 72.7088 231.307C82.5307 231.307 90.4934 223.345 90.4934 213.523C90.4934 207.365 87.3624 201.939 82.6065 198.747C84.5057 201.576 85.6144 204.98 85.6144 208.644Z"
          fill="white"
        />
        <path
          id="Vector_5"
          d="M78.7735 189.094C78.7735 189.094 80.0983 188.325 80.1776 185.963C80.234 184.264 79.0147 182.825 79.0147 182.825C79.0147 182.825 79.9415 181.787 79.5531 180.082C79.0318 177.79 75.5626 176.553 71.6902 177.345C67.8189 178.136 65.6677 179.673 65.7589 182.023C65.7977 183.046 66.5237 183.78 66.5237 183.78C66.5237 183.78 65.0689 184.939 65.0689 187.065C65.0689 188.915 66.7969 189.094 66.7969 189.094"
          stroke="black"
          stroke-width="3"
          stroke-miterlimit="10"
        />
        <path
          id="Vector_6"
          d="M66.169 187.925C64.4329 189.692 63.298 192.358 62.9045 195.112C62.6752 196.719 62.2224 199.375 61.1114 201.058C60.029 202.697 56.2552 207.647 56.2552 213.526C56.2552 222.566 63.5832 229.893 72.6226 229.893C81.6621 229.893 88.99 222.565 88.99 213.526C88.99 207.647 85.0748 202.741 84.1338 201.058C83.1934 199.375 82.4708 196.731 82.3407 195.112C82.1075 192.222 80.8283 189.585 78.8385 187.79"
          stroke="black"
          stroke-width="2"
          stroke-miterlimit="10"
          stroke-linejoin="round"
        />
        <path
          id="Vector_7"
          d="M82.7656 197.078C82.3275 191.496 78.2967 186.813 72.7852 186.813C67.2736 186.813 63.5919 191.407 62.8047 197.078"
          stroke="black"
          stroke-width="1.8"
          stroke-miterlimit="10"
          stroke-linecap="round"
          stroke-linejoin="round"
        />
        <path
          id="Vector_8"
          d="M70.1589 187.868L70.1589 204.131L66.1672 212.629L79.0786 212.629L75.0869 204.131L75.0869 187.868"
          stroke="black"
          stroke-width="2"
          stroke-miterlimit="10"
          stroke-linecap="round"
          stroke-linejoin="round"
        />
      </g>
      <g id="lightlines">
        <path
          id="Vector_9"
          d="M98.0055 212.106L103.356 212.106"
          stroke="black"
          stroke-width="2"
          stroke-miterlimit="10"
          stroke-linecap="round"
          stroke-linejoin="round"
        />
        <path
          id="Vector_10"
          d="M42.2928 212.106L47.6441 212.106"
          stroke="black"
          stroke-width="2"
          stroke-miterlimit="10"
          stroke-linecap="round"
          stroke-linejoin="round"
        />
        <path
          id="Vector_11"
          d="M90.6303 229.912L94.4143 233.696"
          stroke="black"
          stroke-width="2"
          stroke-miterlimit="10"
          stroke-linecap="round"
          stroke-linejoin="round"
        />
        <path
          id="Vector_12"
          d="M51.2353 190.515L55.0193 194.301"
          stroke="black"
          stroke-width="2"
          stroke-miterlimit="10"
          stroke-linecap="round"
          stroke-linejoin="round"
        />
        <path
          id="Vector_13"
          d="M55.0193 229.912L51.2353 233.696"
          stroke="black"
          stroke-width="2"
          stroke-miterlimit="10"
          stroke-linecap="round"
          stroke-linejoin="round"
        />
        <path
          id="ll1"
          d="M94.4143 190.515L90.6303 194.301"
          stroke="black"
          stroke-width="2"
          stroke-miterlimit="10"
          stroke-linecap="round"
          stroke-linejoin="round"
        />
      </g>
    </g>
  </g>
</svg>
