<svg
  width="1em"
  height="1em"
  aria-hidden="true"
  fill="none"
  viewBox="0 0 306 176"
  xmlns="http://www.w3.org/2000/svg"
>
  <path
    d="M255.596 112.208L300.023 176.001H256.735C252.044 170.757 247.486 164.444 243.451 158.616C237.259 149.674 237.274 137.401 243.672 128.604L255.596 112.208Z"
    fill="#a3a3a3"
  ></path>
  <path
    d="M189.525 63.7937L145.098 0.000900269L188.386 0.000896484C193.077 5.24439 197.635 11.5576 201.67 17.3856C207.862 26.3278 207.847 38.6011 201.449 47.3974L189.525 63.7937Z"
    fill="#a3a3a3"
  ></path>
  <path
    d="M252.749 10.822C257.306 3.41748 262.432 0.569579 270.406 0.569579L305.72 0L190.84 169.553C188.348 173.23 184.212 175.43 179.79 175.43H141.254C178.1 120.437 217.109 66.5796 252.749 10.822Z"
    fill="#212224"
  ></path>
  <path
    d="M0 175.431H62.4564C118.3 175.431 152.345 141.325 152.345 87.9736C152.345 34.6223 118.3 0.516479 62.4564 0.516479H0L38.7314 34.8659H22.7832C10.2004 34.8659 0 45.0663 0 57.6491V141.081V175.431ZM39.9231 141.081V34.8659H62.2115C94.052 34.8659 111.932 55.8167 111.932 87.9736C111.932 120.131 94.052 141.081 62.4564 141.081H39.9231Z"
    fill="#212224"
  ></path>
</svg>
