<svg width="1em" height="1em" viewBox="0 0 165 30" fill="none" xmlns="http://www.w3.org/2000/svg">
  <path
    fill-rule="evenodd"
    clip-rule="evenodd"
    d="M59.2465 10.5127C59.2465 6.95409 56.3755 4.08301 53.0673 4.08301H44.2036V25.058H47.3874V16.8801H52.7564C53.8793 19.5024 55.1904 22.4357 56.3771 25.058H59.623L55.7534 16.2564C57.0645 15.5068 59.2497 13.5098 59.2497 10.5127H59.2465ZM52.817 13.9452H47.3858V7.01629H52.7548C54.4408 7.01629 56.0629 8.57625 56.0629 10.5127C56.0629 12.4491 54.503 13.9452 52.817 13.9452ZM108.812 10.5127C108.812 6.95409 105.94 4.08301 102.632 4.08301H93.7688V25.058H96.9524V16.8801H102.321C103.444 19.5024 104.755 22.4357 105.942 25.058H109.188L105.318 16.2564C106.63 15.5068 108.815 13.5098 108.815 10.5127H108.812ZM102.382 13.9452H96.9508V7.01629H102.32C104.006 7.01629 105.628 8.57625 105.628 10.5127C105.628 12.4491 104.068 13.9452 102.382 13.9452ZM60.4338 17.5045C60.4338 12.8233 63.2423 9.70189 67.7367 9.70153C72.2312 9.70189 75.0396 12.8855 75.0396 17.5667C75.0396 18.0038 74.9775 18.4408 74.9153 18.7534H63.8041C63.8041 20.6881 65.3657 22.4987 67.7375 22.4987C69.4219 22.4987 70.4842 21.9372 71.1079 20.7505L71.17 20.626H74.5404L74.4782 20.7505C74.1035 22.2481 73.3553 23.3711 72.1064 24.183C70.8591 24.9948 69.4235 25.3697 67.7375 25.3697C63.3049 25.3697 60.4338 22.186 60.4338 17.5045ZM63.8041 16.1312H71.5433V15.9446C71.5433 14.509 70.4188 12.5742 67.7359 12.5742C65.053 12.5742 63.8663 14.6956 63.8663 15.9446C63.8041 16.069 63.8041 16.1312 63.8041 16.1312ZM87.6476 4.20901V11.4506C87.6279 11.4374 87.5916 11.4076 87.5393 11.3648L87.5391 11.3646C87.0957 11.0011 85.5112 9.70237 83.2789 9.70237C79.1588 9.70237 76.3499 12.8861 76.2877 17.5676C76.2877 22.1868 78.9722 25.3705 83.2789 25.3705C84.7765 25.3705 86.8996 24.372 87.6476 23.6224L87.9603 25.058H90.8314V4.08301H87.6476V4.20742V4.20901ZM86.7114 21.1262C86.0254 22.0624 85.0255 22.4995 83.778 22.4995C82.4047 22.4995 81.344 22.0624 80.6566 21.1262C79.9068 20.1899 79.5337 19.0031 79.6581 17.5676C79.6581 16.132 80.033 14.9453 80.7188 14.009C81.4046 13.0727 82.4669 12.6357 83.8404 12.6357C86.3365 12.6357 87.71 14.5083 87.71 17.5676C87.71 19.0031 87.3351 20.1899 86.7114 21.1262ZM137.779 11.4506V4.20901V4.20742V4.08301H140.962V25.058H138.091L137.779 23.6224C137.031 24.372 134.908 25.3705 133.41 25.3705C129.102 25.3705 126.417 22.2491 126.417 17.5676C126.417 12.8861 129.29 9.70237 133.41 9.70237C135.638 9.70237 137.219 10.9961 137.667 11.3624C137.721 11.4065 137.759 11.4372 137.779 11.4506ZM133.847 22.4995C135.094 22.4995 136.094 22.0624 136.78 21.1262H136.782C137.405 20.1899 137.78 19.0031 137.78 17.5676C137.78 14.5083 136.407 12.6357 133.909 12.6357C132.537 12.6357 131.475 13.0727 130.789 14.009C130.102 14.9453 129.727 16.132 129.727 17.5676C129.665 19.0031 130.04 20.1899 130.725 21.1262C131.411 22.0624 132.474 22.4995 133.847 22.4995ZM124.232 21.3742V15.2571C124.232 13.3845 123.608 12.0112 122.421 11.0749C121.235 10.1386 119.612 9.70153 117.552 9.70153C114.118 9.70153 110.998 11.4497 110.998 14.9445V15.0689H114.119V14.9445C114.119 14.3208 114.432 13.7577 114.931 13.3223C115.43 12.8852 116.304 12.6364 117.491 12.6364C120.737 12.6364 120.986 14.1964 120.986 15.1327V15.9446H116.99C112.621 15.9446 110.498 18.0038 110.436 20.626C110.436 21.9994 110.935 23.1861 111.934 24.0587C112.932 24.9327 114.43 25.3697 116.427 25.3697C117.676 25.3697 118.737 25.1832 119.611 24.8083C120.423 24.4956 121.048 24.0587 121.421 23.6854L121.483 23.6232C121.983 24.4972 123.045 25.0586 124.729 25.0586H126.103V22.3743H125.291C124.605 22.3743 124.23 21.9372 124.23 21.3758L124.232 21.3742ZM121.05 18.8779C121.05 20.5638 119.801 22.4987 116.429 22.4987C114.307 22.4987 113.682 21.438 113.682 20.626C113.682 19.6897 114.181 18.503 117.115 18.503H120.924C120.94 18.5199 120.957 18.5321 120.973 18.5436C121.016 18.5744 121.05 18.5989 121.05 18.6896V18.8763V18.8779ZM143.644 4.58001H143.77H147.202V8.2008H143.644V4.58001ZM143.771 10.1374V25.0558H146.953V10.013H143.771V10.1374ZM162.993 10.012H162.994V10.0104L162.993 10.012ZM162.993 10.012H159.374L155.565 15.1927C155.565 15.1927 151.693 10.1364 151.631 10.012H148.073C148.073 10.012 148.136 10.1364 148.199 10.1986L153.69 17.6268L148.199 24.9305C148.136 25.055 148.073 25.1172 148.073 25.1172H151.631L155.565 20.1231L159.374 25.1172H162.994L157.501 17.6268L162.993 10.012Z"
    fill="currentColor"
  ></path>
  <path
    d="M21.4786 0.596191L24.1362 2.98911L17.3563 10.519L14.6987 8.12607L21.4786 0.596191Z"
    fill="currentColor"
  ></path>
  <path
    d="M31.0868 12.4235L30.3433 15.9215L20.4323 13.8148L21.1758 10.3168L31.0868 12.4235Z"
    fill="currentColor"
  ></path>
  <path
    d="M25.6482 26.6581L22.2471 27.7632L19.116 18.1266L22.5171 17.0215L25.6482 26.6581Z"
    fill="currentColor"
  ></path>
  <path
    d="M10.6013 29.0654L7.94373 26.6724L14.7237 19.1426L17.3813 21.5355L10.6013 29.0654Z"
    fill="currentColor"
  ></path>
  <path
    d="M0.993164 17.2381L1.73669 13.7401L11.6477 15.8467L10.9042 19.3447L0.993164 17.2381Z"
    fill="currentColor"
  ></path>
  <path
    d="M6.43181 3.00349L9.83294 1.89839L12.964 11.5349L9.56291 12.64L6.43181 3.00349Z"
    fill="currentColor"
  ></path>
</svg>
