<svg width="293" height="71" viewBox="0 0 293 71" fill="none" xmlns="http://www.w3.org/2000/svg">
  <path
    d="M85.0045 57.555C82.5748 57.555 80.5337 57.074 78.881 56.112C77.2407 55.15 76.0012 53.8303 75.1625 52.153C74.3238 50.4633 73.9045 48.527 73.9045 46.344V31.1H80.0465V46.566C80.0465 48.3297 80.4843 49.6432 81.36 50.5065C82.2357 51.3575 83.4505 51.783 85.0045 51.783C86.5462 51.783 87.7487 51.3575 88.612 50.5065C89.4877 49.6432 89.9255 48.3297 89.9255 46.566V31.1H96.086V46.344C96.086 48.5147 95.6667 50.4448 94.828 52.1345C93.9893 53.8118 92.7437 55.1377 91.091 56.112C89.4507 57.074 87.4218 57.555 85.0045 57.555ZM100.779 57V38.13H106.847V40.128C107.55 39.24 108.382 38.5925 109.344 38.1855C110.306 37.7785 111.318 37.575 112.378 37.575C114.154 37.575 115.616 37.9265 116.763 38.6295C117.91 39.3202 118.755 40.2205 119.297 41.3305C119.852 42.4282 120.13 43.5937 120.13 44.827V57H114.062V46.7325C114.062 45.5978 113.76 44.7037 113.155 44.05C112.563 43.3963 111.688 43.0695 110.528 43.0695C109.788 43.0695 109.141 43.2298 108.586 43.5505C108.043 43.8712 107.618 44.3275 107.309 44.9195C107.001 45.4992 106.847 46.1652 106.847 46.9175V57H100.779ZM124.248 57V30.36H130.316V57H124.248ZM143.646 57.555C141.587 57.555 139.767 57.1048 138.189 56.2045C136.61 55.2918 135.371 54.077 134.47 52.56C133.582 51.043 133.138 49.378 133.138 47.565C133.138 46.2453 133.391 44.9873 133.897 43.791C134.415 42.5823 135.142 41.5155 136.08 40.5905C137.017 39.6532 138.127 38.9193 139.41 38.389C140.692 37.8463 142.105 37.575 143.646 37.575C145.706 37.575 147.525 38.0313 149.104 38.944C150.682 39.8443 151.916 41.053 152.804 42.57C153.692 44.087 154.136 45.752 154.136 47.565C154.136 48.8847 153.883 50.1488 153.377 51.3575C152.872 52.5538 152.15 53.6145 151.213 54.5395C150.275 55.4645 149.165 56.1983 147.883 56.741C146.6 57.2837 145.188 57.555 143.646 57.555ZM143.646 52.338C144.51 52.338 145.287 52.1468 145.977 51.7645C146.668 51.3698 147.211 50.8148 147.605 50.0995C148 49.3842 148.197 48.5393 148.197 47.565C148.197 46.5783 148 45.7335 147.605 45.0305C147.223 44.3152 146.686 43.7663 145.996 43.384C145.305 42.9893 144.522 42.792 143.646 42.792C142.771 42.792 141.987 42.9893 141.297 43.384C140.606 43.7663 140.063 44.3152 139.669 45.0305C139.274 45.7335 139.077 46.5783 139.077 47.565C139.077 48.5393 139.274 49.3842 139.669 50.0995C140.076 50.8148 140.625 51.3698 141.315 51.7645C142.006 52.1468 142.783 52.338 143.646 52.338ZM166.084 57.555C164.086 57.555 162.298 57.1233 160.719 56.26C159.153 55.3843 157.913 54.1942 157.001 52.6895C156.088 51.1725 155.632 49.4643 155.632 47.565C155.632 46.1343 155.897 44.8147 156.427 43.606C156.97 42.3973 157.728 41.3428 158.703 40.4425C159.677 39.5298 160.812 38.8268 162.107 38.3335C163.402 37.8278 164.808 37.575 166.325 37.575C167.755 37.575 169.081 37.7723 170.302 38.167C171.523 38.5493 172.621 39.129 173.595 39.906L170.931 44.4015C170.327 43.8465 169.661 43.4395 168.933 43.1805C168.218 42.9215 167.466 42.792 166.676 42.792C165.64 42.792 164.746 42.977 163.994 43.347C163.241 43.717 162.662 44.2597 162.255 44.975C161.86 45.6903 161.663 46.5475 161.663 47.5465C161.663 49.0512 162.107 50.229 162.995 51.08C163.895 51.9187 165.128 52.338 166.695 52.338C167.583 52.338 168.415 52.1777 169.192 51.857C169.982 51.524 170.703 51.043 171.357 50.414L173.817 55.002C172.757 55.7913 171.542 56.4142 170.173 56.8705C168.816 57.3268 167.453 57.555 166.084 57.555ZM176.227 57V30.36H182.295V44.383L187.975 38.13H195.005L188.4 45.752L195.597 57H188.419L183.997 49.711L182.295 51.524V57H176.227ZM210.528 57.555C208.542 57.555 206.704 57.2158 205.015 56.5375C203.337 55.8468 201.876 54.891 200.63 53.67C199.384 52.449 198.416 51.0183 197.726 49.378C197.047 47.7377 196.708 45.9617 196.708 44.05C196.708 42.126 197.047 40.3438 197.726 38.7035C198.416 37.0632 199.384 35.6325 200.63 34.4115C201.876 33.1905 203.337 32.2408 205.015 31.5625C206.704 30.8842 208.542 30.545 210.528 30.545C212.526 30.545 214.363 30.8903 216.041 31.581C217.718 32.2717 219.179 33.2337 220.425 34.467C221.671 35.7003 222.633 37.1372 223.311 38.7775C224.002 40.4055 224.347 42.163 224.347 44.05C224.347 45.9617 224.002 47.7377 223.311 49.378C222.633 51.0183 221.671 52.449 220.425 53.67C219.179 54.891 217.718 55.8468 216.041 56.5375C214.363 57.2158 212.526 57.555 210.528 57.555ZM210.528 51.783C211.601 51.783 212.581 51.6042 213.469 51.2465C214.369 50.8888 215.153 50.3708 215.819 49.6925C216.485 49.0142 216.996 48.2002 217.354 47.2505C217.724 46.2885 217.909 45.2217 217.909 44.05C217.909 42.4713 217.588 41.1023 216.947 39.943C216.318 38.7837 215.442 37.8895 214.32 37.2605C213.21 36.6192 211.946 36.2985 210.528 36.2985C209.467 36.2985 208.486 36.4835 207.586 36.8535C206.686 37.2112 205.903 37.7292 205.237 38.4075C204.583 39.0858 204.071 39.8998 203.701 40.8495C203.331 41.7992 203.146 42.866 203.146 44.05C203.146 45.6163 203.467 46.9792 204.108 48.1385C204.749 49.2978 205.625 50.1982 206.735 50.8395C207.857 51.4685 209.122 51.783 210.528 51.783ZM227.573 64.77V38.13H232.809V40.2945C233.512 39.4682 234.406 38.8083 235.491 38.315C236.589 37.8217 237.859 37.575 239.302 37.575C241.103 37.575 242.706 37.9882 244.112 38.8145C245.531 39.6408 246.647 40.8063 247.461 42.311C248.275 43.8157 248.682 45.567 248.682 47.565C248.682 48.971 248.447 50.2845 247.979 51.5055C247.522 52.7142 246.869 53.7748 246.018 54.6875C245.167 55.5878 244.162 56.2908 243.002 56.7965C241.855 57.3022 240.585 57.555 239.191 57.555C238.081 57.555 237.058 57.3762 236.12 57.0185C235.195 56.6608 234.363 56.1552 233.623 55.5015V64.77H227.573ZM238.174 52.338C239.049 52.338 239.833 52.1468 240.523 51.7645C241.214 51.3698 241.757 50.8148 242.151 50.0995C242.546 49.3842 242.743 48.5393 242.743 47.565C242.743 46.5783 242.54 45.7335 242.133 45.0305C241.738 44.3152 241.195 43.7663 240.505 43.384C239.826 42.9893 239.049 42.792 238.174 42.792C237.31 42.792 236.533 42.9893 235.843 43.384C235.152 43.7663 234.609 44.3152 234.215 45.0305C233.82 45.7335 233.623 46.5783 233.623 47.565C233.623 48.5393 233.82 49.3842 234.215 50.0995C234.609 50.8148 235.146 51.3698 235.824 51.7645C236.515 52.1468 237.298 52.338 238.174 52.338ZM260.592 57.555C258.52 57.555 256.701 57.1418 255.135 56.3155C253.568 55.4768 252.347 54.3113 251.472 52.819C250.596 51.3143 250.158 49.5568 250.158 47.5465C250.158 46.0912 250.411 44.753 250.917 43.532C251.435 42.311 252.15 41.2565 253.063 40.3685C253.988 39.4805 255.073 38.796 256.319 38.315C257.577 37.8217 258.958 37.575 260.463 37.575C262.115 37.575 263.589 37.871 264.884 38.463C266.179 39.0427 267.246 39.8567 268.085 40.905C268.936 41.941 269.521 43.1682 269.842 44.5865C270.163 45.9925 270.175 47.5218 269.879 49.1745H255.708C255.72 49.9145 255.942 50.562 256.374 51.117C256.806 51.672 257.398 52.1098 258.15 52.4305C258.902 52.7388 259.778 52.893 260.777 52.893C261.887 52.893 262.942 52.7512 263.941 52.4675C264.94 52.1715 265.895 51.7213 266.808 51.117L268.714 55.224C268.134 55.668 267.382 56.0688 266.457 56.4265C265.544 56.7718 264.57 57.0432 263.534 57.2405C262.51 57.4502 261.529 57.555 260.592 57.555ZM256.078 45.086H264.107C264.082 44.1363 263.731 43.3778 263.053 42.8105C262.374 42.2432 261.455 41.9595 260.296 41.9595C259.124 41.9595 258.15 42.2432 257.373 42.8105C256.608 43.3778 256.177 44.1363 256.078 45.086ZM272.885 57V38.13H278.953V40.128C279.656 39.24 280.489 38.5925 281.451 38.1855C282.413 37.7785 283.424 37.575 284.485 37.575C286.261 37.575 287.722 37.9265 288.869 38.6295C290.016 39.3202 290.861 40.2205 291.404 41.3305C291.959 42.4282 292.236 43.5937 292.236 44.827V57H286.168V46.7325C286.168 45.5978 285.866 44.7037 285.262 44.05C284.67 43.3963 283.794 43.0695 282.635 43.0695C281.895 43.0695 281.247 43.2298 280.692 43.5505C280.15 43.8712 279.724 44.3275 279.416 44.9195C279.107 45.4992 278.953 46.1652 278.953 46.9175V57H272.885Z"
    fill="var(--color-text)"
  />
  <g clip-path="url(#clip0_248_60)">
    <path
      d="M48.209 31.2806C48.0915 33.5326 47.6981 35.6381 47.0142 37.5878C46.1134 39.9704 44.7198 42.118 42.8367 44.0268C40.5679 46.3283 37.9475 47.8604 34.9785 48.6193C31.9616 49.3334 28.9348 49.2692 25.8984 48.4336C22.8656 47.5977 20.1391 46.0072 17.7223 43.6619C15.3056 41.3166 13.6421 38.647 12.732 35.6565C11.8218 32.6626 11.6926 29.7132 12.3438 26.7979C13.0437 23.8349 14.5039 21.23 16.7273 18.9761C18.6105 17.0672 20.814 15.6108 23.3419 14.6133C25.8697 13.6158 28.6209 13.1732 31.5991 13.2852L30.9845 3.77593C27.1283 3.7734 23.3557 4.56489 19.6636 6.15746C16.0201 7.69878 12.7966 9.89179 9.99637 12.7328C6.47686 16.3077 4.15516 20.4246 3.03151 25.0868C1.90842 29.6528 1.98235 34.2256 3.25032 38.8121C4.47014 43.3503 6.90545 47.3896 10.553 50.9335C14.2006 54.4774 18.3276 56.8504 22.9273 58.0563C27.5758 59.2144 32.2134 59.1618 36.833 57.8957C41.4564 56.6328 45.5294 54.2121 49.0558 50.6367C51.8074 47.8435 53.896 44.648 55.3217 41.0502C56.5846 37.9196 57.2703 34.6898 57.3823 31.3607C54.2861 31.555 51.3371 31.6744 48.2055 31.2808L48.209 31.2806Z"
      fill="var(--color-primary)"
    />
    <path
      d="M48.7416 24.7389C49.7034 20.1389 51.9037 15.9649 55.346 12.2166C58.7884 8.46841 62.773 5.86136 67.2963 4.3923C69.8446 3.59936 71.1358 3.46255 73.7198 3.41876C73.2864 6.75196 73.6048 9.89478 73.258 13.1776C72.4386 13.3382 71.6226 13.5499 70.8075 13.8269C67.824 14.8373 65.1934 16.5828 62.9158 19.0633C60.6346 21.544 59.3126 23.3094 58.2517 26.2517C57.9768 27.0111 57.6007 28.961 57.5147 29.7525C53.8743 29.9279 51.7281 29.9496 48.4681 29.6538C48.5273 28.037 48.3863 26.3752 48.7416 24.7389Z"
      fill="var(--color-text)"
    />
  </g>
</svg>
